# xmcd
#
# Track frame offsets:
#	150
#	17312
#	36434
#	50877
#	70142
#	85851
#	110627
#	126084
#	139462
#	156508
#	178218
#	196868
#	214051
#
# Disc length: 3092 seconds
#
# Revision: 1
# Processed by: cddbd v1.5.1PL2 Copyright (c) Steve Scherf et al.
# Submitted via: audiograbber 1.83.01
#
DISCID=c30c120d
DTITLE=Robin Dean Salmon - Gasoline
DYEAR=2006
DGENRE=
TTITLE0=Lonesome
TTITLE1=When You Have It All
TTITLE2=When I Find You
TTITLE3=Baby Please Try
TTITLE4=Plane Train
TTITLE5=Maybe I Do
TTITLE6=Gasoline
TTITLE7=Still In Love With You
TTITLE8=Echo Of You
TTITLE9=Draw The Line
TTITLE10=Sympathy
TTITLE11=Son
TTITLE12=Broken Down Car
EXTD=
EXTT0=
EXTT1=
EXTT2=
EXTT3=
EXTT4=
EXTT5=
EXTT6=
EXTT7=
EXTT8=
EXTT9=
EXTT10=
EXTT11=
EXTT12=
PLAYORDER=
